<svg width="160" height="58" fill="none" xmlns="http://www.w3.org/2000/svg"><g clip-path="url(#clip0_2_500)" fill="#fff"><path d="M93.323 55.832h-6.224V34.328c0-2.102-1.979-6.315-6.694-6.315-3.541 0-6.266 3.248-6.266 6.613 0 2.966 2.704 6.667 7.53 6.667 1.664 0 2.88-.72 2.88-.72v6.016s-1.482.678-3.669.678c-4.485 0-6.763-1.355-9.472-3.835-2.256-2.07-3.605-6.443-3.605-8.88 0-2.432 1.264-6.624 3.338-8.656 2.075-2.027 4.96-4.192 9.558-4.192 4.597 0 7.573 2.613 9.514 4.555 3.067 3.06 3.11 9.696 3.11 9.696v19.877zm20.693-26.47v-15.54h6.224v2.613s2.384-1.851 5.723-2.976c3.333-1.126 7.573-1.58 7.573-1.58v3.43s1.76-.32 3.424-.453c1.669-.133 3.787-.09 3.787-.09v4.42s-1.078 0-2.208.043c-1.12.043-2.795.315-2.795.315l5.051 1.44.048 4.784 2.97-3.878 4.822 1.622-2.838-4.107L160 1.965v6.806l-8.789 10.954 7.797 11.36-13.664-4.15-8.965 11.052-.054-13.846-2.789-.901v2.613s-5.552.315-9.109 4.15c-4.507 4.869-4.144 10.053-4.144 10.053v15.787h-6.267V40.14c0-2.48.288-7.706 5.408-13.253 3.963-4.294 9.968-6.09 9.968-6.09l8.107 2.527-.043 11.632 7.531-9.376 11.541 3.739-6.629-9.69 9.066-11.18V4.974L147.2 19.496l3.872 5.765-6.853-2.07-4.64 5.675-.048-7.162s-5.723-1.893-8.203-2.39a29.328 29.328 0 014.779-.991c1.936-.182 3.424-.182 3.424-.182v-2.346s-5.184-.027-10.774 1.898a32.376 32.376 0 00-12.128 7.707c-1.76 1.803-2.613 3.963-2.613 3.963zm-9.2-15.546h6.133v42.027h-6.133V13.816z"/><path d="M96.39 55.832h6.175V33.699c0-5.19-2.122-10.374-7.034-15.286-4.912-4.917-11.808-5.994-15.19-5.994-3.386 0-9.109 1.354-12.448 3.962C64.56 19 58.427 24.045 58.427 34.91c0 9.158 6.149 15.942 10.954 18.715 3.776 2.176 7.216 2.933 11.59 2.933 3.066 0 3.562-.458 3.562-.458v-6.31s-1.312.496-3.61.496c-2.294 0-5.451-.181-9.014-2.522a15.722 15.722 0 01-7.034-13.302c0-6.448 3.605-10.821 7.029-13.162 3.43-2.347 7.125-2.614 8.837-2.614 1.718 0 6.72.582 10.64 4.507 3.926 3.92 5.008 8.112 5.008 14.608v18.032zM42.95 37.8c0 4.597.287 6.043 1.455 7.21 1.312 1.313 2.027 2.08 6.63 2.08h7.392v-5.866s-2.934-.043-6.038-.043c-3.024 0-3.114-.858-3.114-3.024v-9.914h9.152V22.52H42.949V37.8z"/><path d="M33.632 22.515h6.267v17.04c0 4.512 1.264 6.357 2.389 7.573 1.125 1.221 3.152 2.976 8.341 2.976h7.798v5.813s-6.534-.085-10.726-.085c-2.709 0-7.44-1.579-10.554-5.28a15.578 15.578 0 01-3.515-9.6V22.515zM42.971.472h6.298v13.387h9.2v5.637H42.971V.472zM33.632.467h6.357v19.072h-6.357V.467zm-3.019 27.776v-5.776H12.31c-2.794 0-3.408 1.274-3.61 1.94-.72 2.39 3.338 5.094 6.629 7.574 3.29 2.48 6.603 4.982 8.117 6.496 1.622 1.622 3.835 4.39 2.523 7.659-1.44 3.61-4.912 3.835-7.755 3.835H.773v5.86h17.035c5.952 0 9.648-1.22 12.581-5.77 2.598-4.037 1.675-8.906.358-11.184-1.846-3.2-4.598-5.637-7.707-7.706-2.437-1.627-3.04-1.808-2.843-2.523.134-.496 1.931-.416 1.931-.416l8.485.01z"/><path d="M30.704 19.47v-5.734l-18.667-.005C6.757 13.73 0 17.427 0 25.41c0 7.978 7.893 11.664 11.36 14.426.501.395.853 1.398-.63 1.398H.758V47h14.976c5.595 0 6.454-.315 7.254-2.027.57-1.19.41-2.432-2.432-5.002-2.838-2.571-8.784-6.944-10.454-8.16-1.669-1.216-4.96-4.192-4.421-7.307.544-3.11 2.432-5.003 6.539-5.003 4.256 0 18.485-.026 18.485-.026"/></g><defs><clipPath id="clip0_2_500"><path fill="#fff" d="M0 0h160v57.024H0z"/></clipPath></defs></svg>