<svg width="160" height="41" fill="none" xmlns="http://www.w3.org/2000/svg"><g clip-path="url(#clip0_2_492)" fill="#fff"><path d="M15.238 23.398L7.284 1.66H0l12.16 29.805h6.104L30.365 1.66h-7.114l-8.014 21.738zm39.556-6.835c0 5.214-3.475 9.47-8.964 9.47-5.267 0-9.024-4.314-9.024-9.58 0-5.213 3.477-9.47 8.911-9.47 5.322 0 9.077 4.316 9.077 9.58zm6.778-.11c0-8.517-6.665-15.41-15.741-15.41-9.078 0-15.803 7.005-15.803 15.52 0 8.464 6.67 15.355 15.689 15.355 9.134 0 15.855-7.006 15.855-15.465zM91.83 1.66h-7.061l-7.675 21.964L68.687 1.66H61.46l12.328 29.583c-1.121 2.578-2.298 3.42-4.201 3.42-1.4 0-2.75-.45-3.979-1.124l-2.298 5.044c2.073 1.12 4.145 1.792 7.002 1.792 4.764 0 7.4-2.239 9.751-8.293L91.83 1.66zm23.587 20.843v-.112c0-5.323-4.875-7.285-9.19-8.628-3.474-1.122-6.666-2.018-6.666-4.145v-.112c0-1.735 1.51-2.97 4.145-2.97 2.466 0 5.491 1.065 8.348 2.8l2.69-4.818c-3.137-2.072-7.171-3.363-10.87-3.363-5.881 0-10.535 3.42-10.535 9.025v.108c0 5.66 4.876 7.453 9.245 8.684 3.474 1.066 6.613 1.85 6.613 4.148v.11c0 1.96-1.683 3.194-4.595 3.194-3.027 0-6.498-1.234-9.693-3.643l-3.026 4.595c3.698 2.914 8.349 4.427 12.552 4.427 6.165 0 10.982-3.081 10.982-9.3zm7.939-19.535c2.321-2.32 2.321-2.32 4.641-2.32h24.128c1.846 0 2.226.005 3.466 1.173l-2.989 5.17h-33.268c-.001 0 1.163-1.159 4.022-4.023z"/><path d="M158.448 4.674c-2.322-2.32-2.857-2.852-2.857-2.852l-16.049 27.74 1.352 2.34h1.863c2.32 0 3.153 0 4.64-2.325 1.342-2.09 12.317-21.314 12.317-21.314.759-1.565-.108-2.427-1.266-3.589z"/><path d="M126.489 6.991h-7.156c.139.206 13.001 22.585 13.001 22.585 1.029 1.819 2.727 2.324 4.816 2.324h3.744L126.489 6.991z"/><path d="M119.333 6.991s7.156 0 12.971 10.054L126.489 6.99h-7.156zm21.561 24.91l-1.352-2.34 5.076-8.775c.001 0-5.148 8.904-3.724 11.115zm14.697-30.08l-2.989 5.17H137.32s13.157-.055 18.271-5.17z"/></g><defs><clipPath id="clip0_2_492"><path fill="#fff" transform="translate(0 .64)" d="M0 0h160v39.744H0z"/></clipPath></defs></svg>